<svg xmlns="http://www.w3.org/2000/svg" viewBox="0 0 256 256" width="256" height="256">
  <rect x="20.48" y="20.48" width="215.04" height="215.04" rx="8.96" fill="none" stroke="#f5f1ea" stroke-width="3.584"></rect>
  <g stroke="#f5f1ea" stroke-opacity="0.22" stroke-width="1.792" stroke-dasharray="4.608 5.632">
    <line x1="128" y1="20.48" x2="128" y2="235.52"></line>
    <line x1="20.48" y1="128" x2="235.52" y2="128"></line>
  </g>
  <g fill="none" stroke-linejoin="round">
    <path d="M135.63,166.71L132.82,175.64L127.29,183.37L120.86,190.11L113.66,196.12L105.06,200.80L95.24,203.46L84.99,204.40L74.49,204.35L63.63,203.00L53.43,199.09L46.03,192.13L42.51,183.44L41.56,174.82L41.01,166.71L40.58,158.41L42.04,149.78L46.88,141.84L54.67,135.59L64.00,131.05L74.19,127.99L84.99,126.99L95.55,128.87L104.68,133.25L112.42,138.56L120.00,143.86L127.76,149.86L133.80,157.59Z" stroke="#c2502b" stroke-opacity="0.18" stroke-width="2.56"></path>
    <path d="M124.45,166.71L122.44,173.70L118.34,179.85L113.38,185.23L107.67,189.98L100.85,193.65L93.10,195.77L84.99,196.52L76.72,196.36L68.27,195.11L60.40,191.94L54.56,186.57L51.52,179.89L50.45,173.16L49.94,166.71L49.80,160.14L51.21,153.40L55.12,147.22L61.21,142.31L68.52,138.73L76.52,136.34L84.99,135.55L93.30,136.93L100.60,140.18L106.85,144.28L112.81,148.56L118.65,153.44L123.09,159.59Z" stroke="#c2502b" stroke-opacity="0.32" stroke-width="2.56"></path>
    <path d="M113.50,166.71L112.18,171.78L109.37,176.31L105.82,180.30L101.63,183.78L96.61,186.45L90.94,188.02L84.99,188.57L78.95,188.37L72.86,187.32L67.22,184.94L62.95,181.09L60.54,176.34L59.52,171.46L59.09,166.71L59.14,161.88L60.35,157.00L63.29,152.54L67.71,148.97L73.01,146.35L78.83,144.62L84.99,144.05L91.06,144.97L96.47,147.21L101.14,150.13L105.49,153.34L109.56,157.03L112.56,161.56Z" stroke="#c2502b" stroke-opacity="0.46" stroke-width="2.56"></path>
    <path d="M102.77,166.71L102.03,169.89L100.38,172.77L98.19,175.32L95.53,177.52L92.35,179.20L88.76,180.20L84.99,180.55L81.18,180.37L77.39,179.62L73.91,178.08L71.21,175.70L69.57,172.78L68.78,169.73L68.47,166.71L68.59,163.64L69.48,160.59L71.37,157.82L74.14,155.58L77.46,153.92L81.12,152.84L84.99,152.48L88.81,153.01L92.28,154.33L95.30,156.14L98.03,158.20L100.47,160.61L102.22,163.49Z" stroke="#c2502b" stroke-opacity="0.59" stroke-width="2.56"></path>
  </g>
  <g fill="none" stroke-linejoin="round">
    <path d="M214.13,84.99L211.40,92.31L208.37,99.14L204.64,105.78L199.22,111.64L192.07,115.93L183.95,118.66L175.31,120.20L166.27,120.20L157.63,117.62L150.82,112.29L146.36,105.51L143.12,98.77L139.75,92.21L136.71,84.99L135.92,77.00L138.62,69.29L144.11,62.88L150.95,57.84L158.48,53.93L166.73,51.57L175.31,51.39L183.50,53.11L191.22,55.62L199.09,58.49L206.89,62.61L212.86,68.92L215.23,76.89Z" stroke="#1f6f6a" stroke-opacity="0.18" stroke-width="2.56"></path>
    <path d="M203.12,84.99L201.36,90.28L199.21,95.22L196.43,99.97L192.47,104.12L187.33,107.17L181.50,109.10L175.31,110.13L168.88,110.03L162.74,108.19L157.80,104.51L154.41,99.81L151.93,95.00L149.58,90.21L147.64,84.99L147.27,79.30L149.22,73.83L153.06,69.22L157.88,65.56L163.25,62.74L169.15,61.02L175.31,60.82L181.22,61.95L186.81,63.76L192.39,65.95L197.79,69.06L201.92,73.60L203.67,79.24Z" stroke="#1f6f6a" stroke-opacity="0.36" stroke-width="2.56"></path>
    <path d="M192.11,84.99L191.18,88.21L189.89,91.23L188.15,94.09L185.70,96.57L182.58,98.41L179.05,99.56L175.31,100.14L171.45,100.02L167.77,98.90L164.75,96.77L162.58,94.01L160.99,91.12L159.60,88.18L158.57,84.99L158.47,81.58L159.66,78.29L161.92,75.50L164.78,73.26L168.02,71.54L171.59,70.49L175.31,70.32L178.92,70.95L182.33,72.04L185.66,73.45L188.81,75.42L191.21,78.18L192.30,81.54Z" stroke="#1f6f6a" stroke-opacity="0.55" stroke-width="2.56"></path>
  </g>
  <path d="M34.37,150.36 L 38.13,154.17 L 41.95,157.56 L 45.83,160.46 L 49.73,162.83 L 53.65,164.64 L 57.55,165.86 L 61.39,166.53 L 65.12,166.70 L 68.70,166.45 L 72.08,165.88 L 75.22,165.10 L 78.09,164.22 L 80.68,163.33 L 83.02,162.49 L 85.14,161.68 L 87.10,160.86 L 88.98,159.91 L 90.88,158.69 L 92.88,157.03 L 95.08,154.77 L 97.56,151.79 L 100.38,148.04 L 103.56,143.51 L 107.11,138.30 L 111.03,132.56 L 115.27,126.50 L 119.77,120.38 L 124.48,114.44 L 129.32,108.92 L 134.22,104.02 L 139.10,99.88 L 143.88,96.58 L 148.52,94.11 L 152.93,92.44 L 157.07,91.45 L 160.90,91.00 L 164.38,90.94 L 167.50,91.12 L 170.29,91.45 L 172.75,91.85 L 174.96,92.32 L 176.98,92.93 L 178.91,93.80 L 180.83,95.06 L 182.85,96.87 L 185.06,99.38 L 187.52,102.68 L 190.29,106.80 L 193.38,111.70 L 196.80,117.25 L 200.52,123.27 L 204.49,129.52 L 208.66,135.76 L 212.95,141.73 L 217.32,147.19 L 221.70,151.97" fill="none" stroke="#f5f1ea" stroke-opacity="0.85" stroke-width="4.608" stroke-linecap="round" stroke-linejoin="round"></path>
  <circle cx="58.86" cy="158.12" r="3.84" fill="#c2502b"></circle>
  <circle cx="85.51" cy="177.88" r="3.84" fill="#c2502b"></circle>
  <circle cx="58.24" cy="165.83" r="3.84" fill="#c2502b"></circle>
  <circle cx="93.15" cy="160.35" r="3.84" fill="#c2502b"></circle>
  <circle cx="58.84" cy="180.13" r="3.84" fill="#c2502b"></circle>
  <circle cx="89.18" cy="149.50" r="3.84" fill="#c2502b"></circle>
  <circle cx="113.90" cy="179.05" r="3.84" fill="#c2502b"></circle>
  <circle cx="87.65" cy="189.84" r="3.84" fill="#c2502b"></circle>
  <circle cx="103.01" cy="189.29" r="3.84" fill="#c2502b"></circle>
  <circle cx="54.99" cy="168.68" r="3.84" fill="#c2502b"></circle>
  <circle cx="101.04" cy="170.98" r="3.84" fill="#c2502b"></circle>
  <circle cx="123.27" cy="160.71" r="3.84" fill="#c2502b"></circle>
  <circle cx="71.87" cy="170.63" r="3.84" fill="#c2502b"></circle>
  <circle cx="99.66" cy="196.55" r="3.84" fill="#c2502b"></circle>
  <circle cx="155.06" cy="79.11" r="3.84" fill="#1f6f6a"></circle>
  <circle cx="170.12" cy="108.52" r="3.84" fill="#1f6f6a"></circle>
  <circle cx="188.83" cy="83.90" r="3.84" fill="#1f6f6a"></circle>
  <circle cx="177.71" cy="104.40" r="3.84" fill="#1f6f6a"></circle>
  <circle cx="163.53" cy="103.92" r="3.84" fill="#1f6f6a"></circle>
  <circle cx="177.15" cy="73.65" r="3.84" fill="#1f6f6a"></circle>
  <circle cx="163.83" cy="99.02" r="3.84" fill="#1f6f6a"></circle>
  <circle cx="183.61" cy="81.30" r="3.84" fill="#1f6f6a"></circle>
  <circle cx="187.31" cy="75.49" r="3.84" fill="#1f6f6a"></circle>
  <circle cx="177.29" cy="104.98" r="3.84" fill="#1f6f6a"></circle>
  <circle cx="221.70" cy="151.97" r="7.68" fill="#f5f1ea" stroke="#0f1620" stroke-width="3.072"></circle>
</svg>