<svg xmlns="http://www.w3.org/2000/svg" viewBox="0 0 1280 320" width="1280" height="320">
  <rect width="1280" height="320" fill="#f5f1ea"></rect>
  <g transform="translate(96, 60)">
  <rect x="16" y="16" width="168" height="168" rx="7.000000000000001" fill="none" stroke="#0f1620" stroke-width="2.8000000000000003"></rect>
  <g stroke="#0f1620" stroke-opacity="0.22" stroke-width="1.4000000000000001" stroke-dasharray="3.5999999999999996 4.3999999999999995">
    <line x1="100" y1="16" x2="100" y2="184"></line>
    <line x1="16" y1="100" x2="184" y2="100"></line>
  </g>
  <g fill="none" stroke-linejoin="round">
    <path d="M105.96,130.24L103.77,137.22L99.44,143.26L94.42,148.52L88.80,153.22L82.08,156.87L74.41,158.95L66.40,159.69L58.20,159.65L49.71,158.60L41.74,155.54L35.96,150.10L33.21,143.32L32.47,136.58L32.04,130.24L31.70,123.76L32.84,117.02L36.63,110.81L42.71,105.93L50.00,102.38L57.96,99.99L66.40,99.21L74.65,100.68L81.78,104.10L87.83,108.25L93.75,112.39L99.81,117.07L104.53,123.12Z" stroke="#c2502b" stroke-opacity="0.18" stroke-width="2"></path>
    <path d="M97.22,130.24L95.66,135.70L92.45,140.51L88.58,144.71L84.12,148.42L78.79,151.29L72.73,152.95L66.40,153.53L59.94,153.41L53.34,152.43L47.19,149.95L42.62,145.75L40.25,140.54L39.41,135.28L39.01,130.24L38.91,125.11L40.01,119.84L43.07,115.01L47.82,111.18L53.53,108.38L59.78,106.51L66.40,105.90L72.89,106.97L78.60,109.52L83.48,112.72L88.13,116.06L92.70,119.88L96.17,124.68Z" stroke="#c2502b" stroke-opacity="0.32" stroke-width="2"></path>
    <path d="M88.67,130.24L87.64,134.21L85.45,137.74L82.67,140.86L79.40,143.57L75.48,145.67L71.05,146.89L66.40,147.32L61.68,147.16L56.92,146.34L52.52,144.48L49.18,141.48L47.30,137.77L46.50,133.96L46.16,130.24L46.20,126.47L47.15,122.66L49.44,119.18L52.90,116.39L57.04,114.33L61.59,112.99L66.40,112.54L71.14,113.26L75.37,115.01L79.02,117.29L82.41,119.79L85.59,122.68L87.94,126.22Z" stroke="#c2502b" stroke-opacity="0.46" stroke-width="2"></path>
    <path d="M80.29,130.24L79.71,132.73L78.42,134.98L76.71,136.97L74.63,138.69L72.15,140.00L69.34,140.78L66.40,141.05L63.42,140.91L60.46,140.33L57.74,139.12L55.63,137.26L54.35,134.99L53.73,132.61L53.49,130.24L53.59,127.85L54.28,125.46L55.76,123.30L57.92,121.54L60.52,120.25L63.38,119.41L66.40,119.13L69.39,119.54L72.09,120.57L74.45,121.98L76.58,123.60L78.49,125.48L79.86,127.73Z" stroke="#c2502b" stroke-opacity="0.59" stroke-width="2"></path>
  </g>
  <g fill="none" stroke-linejoin="round">
    <path d="M167.29,66.40L165.15,72.12L162.79,77.46L159.87,82.64L155.64,87.22L150.06,90.57L143.71,92.70L136.96,93.91L129.90,93.90L123.15,91.89L117.83,87.72L114.34,82.43L111.81,77.17L109.18,72.04L106.81,66.40L106.19,60.16L108.30,54.13L112.59,49.12L117.93,45.19L123.81,42.14L130.26,40.29L136.96,40.15L143.36,41.49L149.39,43.45L155.54,45.69L161.63,48.91L166.30,53.84L168.15,60.07Z" stroke="#1f6f6a" stroke-opacity="0.18" stroke-width="2"></path>
    <path d="M158.68,66.40L157.31,70.53L155.63,74.39L153.46,78.10L150.37,81.34L146.35,83.73L141.80,85.24L136.96,86.04L131.94,85.96L127.14,84.52L123.28,81.65L120.63,77.97L118.70,74.22L116.86,70.48L115.34,66.40L115.06,61.96L116.58,57.68L119.58,54.08L123.34,51.22L127.54,49.02L132.15,47.68L136.96,47.51L141.58,48.40L145.95,49.81L150.31,51.52L154.52,53.95L157.75,57.50L159.12,61.91Z" stroke="#1f6f6a" stroke-opacity="0.36" stroke-width="2"></path>
    <path d="M150.09,66.40L149.36,68.91L148.35,71.27L146.99,73.51L145.08,75.45L142.64,76.88L139.88,77.78L136.96,78.23L133.95,78.14L131.07,77.27L128.71,75.60L127.02,73.45L125.77,71.19L124.69,68.89L123.88,66.40L123.81,63.73L124.74,61.17L126.50,58.99L128.74,57.24L131.27,55.89L134.05,55.07L136.96,54.94L139.78,55.43L142.44,56.28L145.05,57.38L147.51,58.92L149.38,61.08L150.24,63.71Z" stroke="#1f6f6a" stroke-opacity="0.55" stroke-width="2"></path>
  </g>
  <path d="M26.85,117.47 L 29.79,120.44 L 32.78,123.09 L 35.80,125.36 L 38.85,127.21 L 41.91,128.62 L 44.96,129.58 L 47.96,130.10 L 50.88,130.24 L 53.67,130.04 L 56.31,129.59 L 58.76,128.98 L 61.01,128.30 L 63.03,127.60 L 64.86,126.94 L 66.52,126.31 L 68.05,125.67 L 69.52,124.93 L 71.00,123.98 L 72.56,122.68 L 74.28,120.91 L 76.22,118.59 L 78.42,115.65 L 80.90,112.12 L 83.68,108.04 L 86.74,103.56 L 90.05,98.83 L 93.57,94.04 L 97.25,89.40 L 101.03,85.09 L 104.86,81.27 L 108.67,78.03 L 112.41,75.45 L 116.03,73.53 L 119.48,72.22 L 122.71,71.44 L 125.70,71.09 L 128.42,71.04 L 130.86,71.19 L 133.04,71.44 L 134.96,71.75 L 136.69,72.13 L 138.27,72.60 L 139.77,73.28 L 141.28,74.26 L 142.86,75.68 L 144.58,77.64 L 146.50,80.22 L 148.66,83.44 L 151.08,87.27 L 153.75,91.60 L 156.66,96.30 L 159.76,101.19 L 163.01,106.06 L 166.37,110.72 L 169.78,115.00 L 173.21,118.73" fill="none" stroke="#0f1620" stroke-opacity="0.85" stroke-width="3.5999999999999996" stroke-linecap="round" stroke-linejoin="round"></path>
  <circle cx="45.98" cy="123.53" r="3" fill="#c2502b"></circle>
  <circle cx="66.80" cy="138.97" r="3" fill="#c2502b"></circle>
  <circle cx="45.50" cy="129.55" r="3" fill="#c2502b"></circle>
  <circle cx="72.78" cy="125.27" r="3" fill="#c2502b"></circle>
  <circle cx="45.97" cy="140.73" r="3" fill="#c2502b"></circle>
  <circle cx="69.67" cy="116.79" r="3" fill="#c2502b"></circle>
  <circle cx="88.98" cy="139.89" r="3" fill="#c2502b"></circle>
  <circle cx="68.48" cy="148.31" r="3" fill="#c2502b"></circle>
  <circle cx="80.47" cy="147.89" r="3" fill="#c2502b"></circle>
  <circle cx="42.96" cy="131.78" r="3" fill="#c2502b"></circle>
  <circle cx="78.94" cy="133.58" r="3" fill="#c2502b"></circle>
  <circle cx="96.30" cy="125.55" r="3" fill="#c2502b"></circle>
  <circle cx="56.15" cy="133.31" r="3" fill="#c2502b"></circle>
  <circle cx="77.86" cy="153.55" r="3" fill="#c2502b"></circle>
  <circle cx="121.14" cy="61.80" r="3" fill="#1f6f6a"></circle>
  <circle cx="132.90" cy="84.78" r="3" fill="#1f6f6a"></circle>
  <circle cx="147.53" cy="65.55" r="3" fill="#1f6f6a"></circle>
  <circle cx="138.83" cy="81.56" r="3" fill="#1f6f6a"></circle>
  <circle cx="127.76" cy="81.19" r="3" fill="#1f6f6a"></circle>
  <circle cx="138.40" cy="57.54" r="3" fill="#1f6f6a"></circle>
  <circle cx="128.00" cy="77.36" r="3" fill="#1f6f6a"></circle>
  <circle cx="143.45" cy="63.52" r="3" fill="#1f6f6a"></circle>
  <circle cx="146.33" cy="58.97" r="3" fill="#1f6f6a"></circle>
  <circle cx="138.51" cy="82.02" r="3" fill="#1f6f6a"></circle>
  <circle cx="173.21" cy="118.73" r="6" fill="#0f1620" stroke="#f5f1ea" stroke-width="2.4"></circle>
</g>
  <g font-family="&#39;IBM Plex Mono&#39;, ui-monospace, monospace" fill="#0f1620">
    <text x="340" y="170" font-size="64" font-weight="600" letter-spacing="9">FHT<tspan fill="#c2502b">—</tspan>SAMPLER</text>
    <text x="340" y="210" font-size="18" letter-spacing="3.5" fill="#6b7480">FUNCTIONAL HIERARCHICAL TENSOR · ENHANCED SAMPLING</text>
  </g>
</svg>